# xmcd
#
# Track frame offsets:
#	150
#	16078
#	31530
#	55839
#	76871
#	102929
#	123481
#	144020
#	162963
#	176338
#	195540
#	209731
#	226309
#	249669
#	268495
#
# Disc length: 3947 seconds
#
# Revision: 1
# Processed by: cddbd v1.5.2PL0 Copyright (c) Steve Scherf et al.
# Submitted via: audiograbber 1.83.01
#
DISCID=c00f690f
DTITLE=Lucy Malheur - Little Blue Devils
DYEAR=2012
DGENRE=Blues
TTITLE0=Fine, Double Fine
TTITLE1=Fag And Booze Blues
TTITLE2=Count My Blessings
TTITLE3=Toad In My Throat
TTITLE4=From Now On
TTITLE5=Southern Comfort On My Mind
TTITLE6=Half A Bottle, Half A Life, Half A Song
TTITLE7=I Got The Blues
TTITLE8=Your Blues Got Nothin' But The Ain't
TTITLE9=The Shit And Chillum Blues
TTITLE10=Barrister Blues
TTITLE11=Blame It On The Change
TTITLE12=Coochee-Coo
TTITLE13=I Got The Blues - Reprise
TTITLE14=Count My Blessings (Unplugged)
EXTD=
EXTT0=
EXTT1=
EXTT2=
EXTT3=
EXTT4=
EXTT5=
EXTT6=
EXTT7=
EXTT8=
EXTT9=
EXTT10=
EXTT11=
EXTT12=
EXTT13=
EXTT14=
PLAYORDER=
